# xmcd CD database file
#
# Track frame offsets:
#	150
#	13593
#	27875
#	43218
#	55968
#	70375
#	86775
#	99295
#	111325
#	124588
#
# Disc length: 1815 seconds
#
# Revision: 2
# Processed by: cddbd v1.5.2PL0 Copyright (c) Steve Scherf et al.
# Submitted via: CDex 1.78
#
DISCID=8407150a
DTITLE=Various Artist - Trucker's Jukebox Vol. 3
DYEAR=1993
DGENRE=Country
TTITLE0=Hot Rod Lincoln/Asleep at the Wheel
TTITLE1=Highway 40 Blues/Ricky Skaggs
TTITLE2=Longhaired Redneck/David Allan Coe
TTITLE3=I'm the one Mama Warned you About/Mickey Gilley
TTITLE4=I'm the only Hell my Mama Ever Raised/Johnny Paycheck
TTITLE5=The Devil Went Down to Georgia/The Charlie Daniels Band
TTITLE6=Restless/Carl Perkins
TTITLE7=Detour/Spade Cooley
TTITLE8=So Round, So Firm, So Fully Packed/Johnny Bond
TTITLE9=Wabash Cannon Ball/Roy Acuff
EXTD=YEAR: 1993
EXTT0=
EXTT1=
EXTT2=
EXTT3=
EXTT4=
EXTT5=
EXTT6=
EXTT7=
EXTT8=
EXTT9=
PLAYORDER=
